<svg width="28" height="28" viewBox="0 0 28 28" fill="none" xmlns="http://www.w3.org/2000/svg">
<circle cx="14" cy="14" r="14" fill="url(#paint0_linear)"/>
<mask id="mask0" mask-type="alpha" maskUnits="userSpaceOnUse" x="0" y="0" width="28" height="28">
<circle cx="14" cy="14" r="14" fill="#08021E"/>
</mask>
<g mask="url(#mask0)">
<path d="M21.5063 5.50736L19.4882 7.97807H23.1661L23.7997 7.20676C23.8548 7.13989 23.9242 7.08623 24.0027 7.04971C24.0813 7.01319 24.167 6.99475 24.2536 6.99575H27.4961C27.4585 6.90776 27.4194 6.82059 27.3789 6.73423H24.2538C24.1298 6.73324 24.0072 6.75966 23.8947 6.81161C23.7822 6.86355 23.6825 6.93974 23.6029 7.0347L23.6003 7.03771L23.0426 7.71648H20.0397L21.7049 5.67745C22.3705 4.9371 23.1504 4.578 24.0573 4.578H25.9642C25.8858 4.48926 25.8057 4.40209 25.724 4.31648H24.0573C23.068 4.31644 22.2177 4.71339 21.5063 5.50736Z" fill="#00D1FF"/>
<path d="M24.0573 16.4594C23.1511 16.4594 22.3753 16.0968 21.718 15.3484L20.0565 13.3209H23.0565L23.6148 14.0026L23.6203 14.0083C23.6997 14.0977 23.7973 14.1692 23.9065 14.2179C24.0158 14.2666 24.1342 14.2914 24.2538 14.2907H29.3848C29.425 14.2042 29.4639 14.1171 29.5016 14.0294H24.2538C24.1702 14.03 24.0876 14.0125 24.0114 13.9782C23.9353 13.9439 23.8674 13.8936 23.8124 13.8307L23.1804 13.0593H19.504L21.5182 15.5175C22.2214 16.3199 23.0677 16.7211 24.0571 16.7211H28.7237C28.8057 16.6354 28.8858 16.5482 28.964 16.4595L24.0573 16.4594Z" fill="#00D1FF"/>
<path d="M14.7114 7.20668L15.3415 7.97799H16.8803L17.9494 6.67321L17.005 5.51968C16.2936 4.7175 15.4473 4.31641 14.4661 4.31641H2.77226C2.69034 4.40187 2.61025 4.48905 2.53197 4.57792H14.4661C15.3634 4.57792 16.1398 4.94011 16.806 5.68935L17.6116 6.67307L16.7569 7.7164H15.4655L14.9112 7.03785L14.9083 7.03455C14.8287 6.93959 14.729 6.86341 14.6165 6.81146C14.504 6.75952 14.3814 6.73309 14.2574 6.73409H1.11713C1.07668 6.82062 1.03763 6.9078 1 6.9956H14.2576C14.3442 6.99464 14.4299 7.0131 14.5084 7.04963C14.587 7.08616 14.6563 7.13982 14.7114 7.20668Z" fill="#00D1FF"/>
<path d="M17.0049 15.5175L19.0197 13.0593H15.3326L14.7113 13.8178C14.6552 13.8835 14.5856 13.9363 14.5073 13.9727C14.429 14.0091 14.3438 14.0282 14.2574 14.0288H10.9944C11.0319 14.117 11.071 14.204 11.1113 14.2904H14.2575C14.3798 14.2899 14.5005 14.2633 14.6118 14.2126C14.723 14.1619 14.8222 14.0881 14.9029 13.9962L14.9085 13.9902L15.4565 13.3211H18.4673L16.806 15.3481C16.1405 16.097 15.3602 16.4596 14.4539 16.4596H12.5319C12.6104 16.5484 12.6905 16.6356 12.7722 16.7212H14.4535C15.4431 16.7211 16.2936 16.3199 17.0049 15.5175Z" fill="#00D1FF"/>
<path d="M14.9195 10.5727C14.9093 10.7378 14.9647 10.9002 15.0736 11.0246C15.1788 11.1323 15.333 11.186 15.536 11.1857C15.618 11.1905 15.7002 11.1783 15.7773 11.1499C15.8545 11.1216 15.9249 11.0776 15.9843 11.0208C16.0408 10.9611 16.0845 10.8906 16.1129 10.8135C16.1413 10.7365 16.1536 10.6544 16.1493 10.5724V9.25964H17.0675V10.6836C17.0729 10.9107 17.0105 11.1342 16.8881 11.3256C16.7615 11.5151 16.58 11.6615 16.368 11.7452C16.1034 11.8498 15.8203 11.8998 15.5358 11.8923C15.2514 11.8998 14.9684 11.8498 14.7037 11.7452C14.4899 11.6612 14.3075 11.5129 14.1816 11.3208C14.0557 11.1287 13.9925 10.9023 14.0007 10.6727V9.25964H14.9189L14.9195 10.5727Z" fill="white"/>
<path d="M19.214 11.8927C18.8938 11.8942 18.5753 11.8446 18.2707 11.7456C18.0191 11.6705 17.7866 11.5421 17.5892 11.369L18.1809 10.8525C18.3255 10.9786 18.4905 11.0793 18.6689 11.1502C18.8593 11.2266 19.0626 11.2656 19.2678 11.265C19.6409 11.265 19.8274 11.1969 19.8274 11.0605C19.8285 11.0391 19.8233 11.0178 19.8125 10.9993C19.8016 10.9808 19.7856 10.966 19.7663 10.9565C19.6977 10.9244 19.6233 10.9061 19.5476 10.9027L18.7873 10.8132C18.4595 10.7724 18.2168 10.6887 18.059 10.5621C17.9036 10.4329 17.8259 10.2464 17.8259 10.0025C17.8227 9.83876 17.8817 9.67988 17.9909 9.5578C18.1246 9.42065 18.2933 9.32266 18.4787 9.27443C18.728 9.20239 18.9868 9.1685 19.2463 9.1739C19.5207 9.17212 19.7942 9.20462 20.0606 9.27064C20.2978 9.32572 20.5227 9.42424 20.7241 9.56123L20.2183 10.0993C20.0895 9.99475 19.9406 9.9178 19.7808 9.87319C19.5914 9.81504 19.3942 9.78601 19.1961 9.78709C19.0783 9.78194 18.9604 9.79774 18.8481 9.83375C18.7693 9.86247 18.7299 9.90553 18.7298 9.96293C18.729 9.98611 18.735 10.009 18.7471 10.0288C18.7592 10.0486 18.7769 10.0643 18.798 10.074C18.8818 10.1065 18.9701 10.1258 19.0598 10.1315L19.7162 10.1961C19.9196 10.2122 20.1198 10.2556 20.3117 10.3251C20.4447 10.3693 20.5603 10.4548 20.6415 10.569C20.7151 10.6897 20.7514 10.8295 20.7457 10.9707C20.7457 11.265 20.6105 11.4922 20.3402 11.6523C20.0726 11.8126 19.6972 11.8927 19.214 11.8927Z" fill="white"/>
<path d="M23.2559 9.25965C23.5354 9.25259 23.8134 9.30134 24.0738 9.40305C24.288 9.4864 24.4718 9.63271 24.6011 9.82268C24.7272 10.0219 24.7909 10.2542 24.7839 10.4898C24.7884 10.7323 24.721 10.9707 24.5901 11.1749C24.4555 11.3781 24.2667 11.5397 24.045 11.6412C23.7904 11.7554 23.5136 11.8118 23.2345 11.8062H21.545V9.25965H23.2559ZM23.0835 11.2111C23.1808 11.2167 23.2782 11.2027 23.37 11.1701C23.4618 11.1374 23.5461 11.0868 23.618 11.021C23.6848 10.954 23.7369 10.8738 23.7709 10.7854C23.8048 10.6971 23.82 10.6026 23.8153 10.5081C23.8203 10.4187 23.8055 10.3293 23.772 10.2462C23.7385 10.1632 23.6871 10.0885 23.6215 10.0276C23.4781 9.90525 23.2934 9.84234 23.1051 9.85175H22.4631V11.2108L23.0835 11.2111Z" fill="white"/>
</g>
<mask id="mask1" mask-type="alpha" maskUnits="userSpaceOnUse" x="0" y="4" width="24" height="24">
<path d="M4.10051 4.1005C2.80049 5.40052 1.76925 6.94387 1.06569 8.64243C0.362121 10.341 1.60727e-07 12.1615 0 14C-1.60727e-07 15.8385 0.36212 17.659 1.06569 19.3576C1.76925 21.0561 2.80048 22.5995 4.1005 23.8995C5.40053 25.1995 6.94387 26.2307 8.64243 26.9343C10.341 27.6379 12.1615 28 14 28C15.8385 28 17.659 27.6379 19.3576 26.9343C21.0561 26.2307 22.5995 25.1995 23.8995 23.8995L14 14L4.10051 4.1005Z" fill="#C4C4C4"/>
</mask>
<g mask="url(#mask1)">
<rect width="28" height="28" rx="14" fill="url(#paint1_linear)"/>
<path d="M9.12858 21.7101C10.604 21.7101 11.8 20.5299 11.8 19.074C11.8 17.6182 10.604 16.438 9.12858 16.438C7.65319 16.438 6.45715 17.6182 6.45715 19.074C6.45715 20.5299 7.65319 21.7101 9.12858 21.7101Z" fill="#0782FF" fill-opacity="0.1"/>
<path d="M8.39999 20.5118V17.3965C7.9976 17.3965 7.67142 17.7183 7.67142 18.1154V20.5118H8.39999Z" fill="#0782FF"/>
<path d="M9.12857 17.0366C9.46388 17.0366 9.73571 16.7684 9.73571 16.4375C9.73571 16.1066 9.46388 15.8384 9.12857 15.8384C8.79325 15.8384 8.52142 16.1066 8.52142 16.4375C8.52142 16.7684 8.79325 17.0366 9.12857 17.0366Z" fill="#0782FF"/>
<path d="M9.37142 21.8298V17.3965H8.64285V21.8298H9.37142Z" fill="white"/>
<path fill-rule="evenodd" clip-rule="evenodd" d="M10.8286 18.1154V19.7929C10.8286 20.19 10.5024 20.5118 10.1 20.5118H8.64285V17.3965H10.1C10.5024 17.3965 10.8286 17.7183 10.8286 18.1154ZM9.85714 18.1154H9.37142V19.7929H9.85714C9.99127 19.7929 10.1 19.6856 10.1 19.5533V18.355C10.1 18.2227 9.99127 18.1154 9.85714 18.1154Z" fill="white"/>
<path d="M5.9954 16.7633C5.9027 16.6962 5.77114 16.7146 5.70687 16.8081C5.23669 17.4921 4.98939 18.3003 5.00035 19.1264C5.01221 20.0206 5.32595 20.8862 5.89318 21.5896C6.46041 22.2929 7.2496 22.7951 8.13902 23.0185C8.96078 23.225 9.82588 23.1829 10.62 22.9006C10.7285 22.862 10.7782 22.7419 10.7332 22.6383C10.6881 22.5347 10.5656 22.4868 10.4568 22.5248C9.74749 22.7727 8.97637 22.8081 8.24357 22.6241C7.44309 22.423 6.73283 21.971 6.22232 21.338C5.71182 20.7049 5.42945 19.926 5.41877 19.1212C5.409 18.3845 5.62742 17.6636 6.04306 17.0516C6.10679 16.9578 6.0881 16.8305 5.9954 16.7633Z" fill="white"/>
<path d="M5.28144 16.7417L6.45024 17.2158C6.50873 17.2395 6.56873 17.1852 6.5487 17.1267L6.2565 16.2733C6.24271 16.233 6.19629 16.2131 6.15645 16.2303L5.27985 16.6096C5.22062 16.6353 5.22161 16.7174 5.28144 16.7417Z" fill="white"/>
<path d="M12.7184 20.8666C12.8212 20.9182 12.9478 20.8788 12.9953 20.7759C13.3109 20.0933 13.4293 19.3378 13.3356 18.5917C13.2333 17.7778 12.8833 17.0128 12.3309 16.3959C11.7786 15.7789 11.0494 15.3386 10.238 15.132C9.49414 14.9426 8.71268 14.9576 7.9792 15.1734C7.86858 15.2059 7.81192 15.3234 7.85068 15.4298C7.88944 15.5362 8.00893 15.5912 8.11972 15.5593C8.77405 15.3706 9.46988 15.3591 10.1326 15.5279C10.8628 15.7138 11.5191 16.1101 12.0162 16.6653C12.5134 17.2206 12.8284 17.9091 12.9204 18.6416C13.0039 19.3063 12.9004 19.9793 12.6228 20.5887C12.5758 20.6919 12.6157 20.815 12.7184 20.8666Z" fill="white"/>
<path d="M13.4546 20.8309L12.2863 20.3548C12.2278 20.331 12.1678 20.3855 12.1879 20.4443L12.4799 21.3012C12.4937 21.3416 12.5401 21.3617 12.5799 21.3443L13.4562 20.9635C13.5154 20.9378 13.5144 20.8553 13.4546 20.8309Z" fill="white"/>
</g>
<defs>
<linearGradient id="paint0_linear" x1="14" y1="28.112" x2="14" y2="-12.824" gradientUnits="userSpaceOnUse">
<stop stop-color="#08021E"/>
<stop offset="1" stop-color="#1F0777"/>
</linearGradient>
<linearGradient id="paint1_linear" x1="14" y1="0" x2="14" y2="28" gradientUnits="userSpaceOnUse">
<stop stop-color="#00264D"/>
<stop offset="1" stop-color="#0366CA"/>
</linearGradient>
</defs>
</svg>
