<svg width="28" height="28" viewBox="0 0 28 28" fill="none" xmlns="http://www.w3.org/2000/svg">
<path d="M14 28C6.3 28 0 21.7 0 14C0 6.3 6.3 0 14 0C21.7 0 28 6.3 28 14C28 21.7 21.7 28 14 28Z" fill="#002868"/>
<path d="M21.0147 12.3399C21.2603 12.3399 21.4516 12.1461 21.4516 11.8781C21.4516 11.61 21.26 11.4162 21.0124 11.4162H20.758C20.7356 11.4162 20.7175 11.4364 20.7175 11.459V12.2991C20.7175 12.3215 20.7356 12.3396 20.758 12.3396L21.0147 12.3399Z" fill="white"/>
<path fill-rule="evenodd" clip-rule="evenodd" d="M22.32 13.5H15.18C14.806 13.5 14.5 13.194 14.5 12.82V5.68C14.5 5.306 14.806 5 15.18 5H22.32C22.694 5 23 5.306 23 5.68V12.82C23 13.194 22.694 13.5 22.32 13.5ZM16.1586 12.6442C16.1362 12.6442 16.1181 12.6238 16.1181 12.6014V11.4593C16.1181 11.4369 16.1 11.4165 16.0776 11.4165H15.6744C15.6517 11.4165 15.6316 11.3984 15.6316 11.376V11.1553C15.6316 11.1329 15.652 11.1125 15.6744 11.1125H16.9154C16.9378 11.1125 16.9582 11.1326 16.9582 11.1553V11.376C16.9582 11.3984 16.9378 11.4165 16.9154 11.4165H16.5145C16.4921 11.4165 16.4717 11.4366 16.4717 11.4593V12.6014C16.4717 12.6238 16.4536 12.6442 16.4312 12.6442H16.1586ZM18.1969 11.1553C18.1969 11.1329 18.2151 11.1125 18.2374 11.1125H18.5077C18.5301 11.1125 18.5505 11.1326 18.5505 11.1553V11.9347C18.5505 12.3966 18.2893 12.6646 17.8748 12.6646C17.4625 12.6646 17.2036 12.3966 17.2036 11.9347V11.1553C17.2036 11.1329 17.2217 11.1125 17.2441 11.1125H17.5144C17.5368 11.1125 17.5572 11.1326 17.5572 11.1553V11.9458C17.5572 12.1733 17.6742 12.3354 17.877 12.3354C18.0799 12.3354 18.1969 12.1733 18.1969 11.9458V11.1553ZM19.7918 11.6126C19.7558 11.6126 19.7445 11.599 19.7309 11.5721C19.6836 11.4616 19.5799 11.3919 19.4223 11.3919C19.2804 11.3919 19.1611 11.4415 19.1611 11.5361C19.1611 11.6398 19.2716 11.6826 19.5147 11.7118C19.8842 11.7545 20.0958 11.8673 20.0958 12.16C20.0958 12.4889 19.8074 12.6623 19.4382 12.6623C19.1183 12.6623 18.8435 12.5068 18.8007 12.1804C18.7962 12.1489 18.812 12.1376 18.8435 12.1376H19.0914C19.1229 12.1376 19.141 12.1512 19.1501 12.1759C19.1838 12.2841 19.2988 12.3674 19.4654 12.3674C19.6119 12.3674 19.7402 12.3133 19.7402 12.1985C19.7402 12.0611 19.6051 12.0365 19.3348 12.0025C19.024 11.9619 18.8078 11.8718 18.8078 11.5857C18.8078 11.2995 19.0534 11.0947 19.4385 11.0947C19.7853 11.0947 20.0264 11.2817 20.076 11.561C20.0828 11.5925 20.0737 11.6129 20.04 11.6129L19.7918 11.6126ZM20.4021 12.6442C20.3797 12.6442 20.3616 12.6238 20.3616 12.6014V11.1553C20.3616 11.1329 20.3797 11.1125 20.4021 11.1125H21.0147C21.4697 11.1125 21.8233 11.4256 21.8233 11.8829C21.8233 12.3334 21.4742 12.6442 21.0147 12.6442H20.4021ZM14.7267 10.2701H22.7733C22.8357 10.2701 22.8867 10.2191 22.8867 10.1567V5.68006C22.8867 5.36839 22.6317 5.11339 22.32 5.11339H15.18C14.8683 5.11339 14.6133 5.36839 14.6133 5.68006V10.1567C14.6133 10.2191 14.6643 10.2701 14.7267 10.2701Z" fill="white"/>
<path d="M19.1673 9.35088H18.4307C18.3839 9.35088 18.3457 9.31263 18.3457 9.26588V6.14921C18.3457 6.10246 18.3839 6.06421 18.4307 6.06421H19.1673C19.2141 6.06421 19.2523 6.10246 19.2523 6.14921V9.26588C19.2523 9.31263 19.2141 9.35088 19.1673 9.35088Z" fill="white"/>
<path d="M20.4217 6.97088H17.0783C17.0316 6.97088 16.9933 6.93263 16.9933 6.88588V6.14921C16.9933 6.10246 17.0316 6.06421 17.0783 6.06421H20.4217C20.4684 6.06421 20.5067 6.10246 20.5067 6.14921V6.88588C20.5067 6.93263 20.4684 6.97088 20.4217 6.97088Z" fill="white"/>
<mask id="mask0" mask-type="alpha" maskUnits="userSpaceOnUse" x="0" y="4" width="24" height="24">
<path d="M4.10051 4.1005C2.80049 5.40052 1.76925 6.94387 1.06569 8.64243C0.362121 10.341 1.60727e-07 12.1615 0 14C-1.60727e-07 15.8385 0.36212 17.659 1.06569 19.3576C1.76925 21.0561 2.80048 22.5995 4.1005 23.8995C5.40053 25.1995 6.94387 26.2307 8.64243 26.9343C10.341 27.6379 12.1615 28 14 28C15.8385 28 17.659 27.6379 19.3576 26.9343C21.0561 26.2307 22.5995 25.1995 23.8995 23.8995L14 14L4.10051 4.1005Z" fill="#C4C4C4"/>
</mask>
<g mask="url(#mask0)">
<rect width="28" height="28" rx="14" fill="url(#paint0_linear)"/>
<path d="M9.12858 21.7101C10.604 21.7101 11.8 20.5299 11.8 19.074C11.8 17.6182 10.604 16.438 9.12858 16.438C7.65319 16.438 6.45715 17.6182 6.45715 19.074C6.45715 20.5299 7.65319 21.7101 9.12858 21.7101Z" fill="#0782FF" fill-opacity="0.1"/>
<path d="M8.39999 20.5118V17.3965C7.9976 17.3965 7.67142 17.7183 7.67142 18.1154V20.5118H8.39999Z" fill="#0782FF"/>
<path d="M9.12857 17.0366C9.46388 17.0366 9.73571 16.7684 9.73571 16.4375C9.73571 16.1066 9.46388 15.8384 9.12857 15.8384C8.79325 15.8384 8.52142 16.1066 8.52142 16.4375C8.52142 16.7684 8.79325 17.0366 9.12857 17.0366Z" fill="#0782FF"/>
<path d="M9.37142 21.8298V17.3965H8.64285V21.8298H9.37142Z" fill="white"/>
<path fill-rule="evenodd" clip-rule="evenodd" d="M10.8286 18.1154V19.7929C10.8286 20.19 10.5024 20.5118 10.1 20.5118H8.64285V17.3965H10.1C10.5024 17.3965 10.8286 17.7183 10.8286 18.1154ZM9.85714 18.1154H9.37142V19.7929H9.85714C9.99127 19.7929 10.1 19.6856 10.1 19.5533V18.355C10.1 18.2227 9.99127 18.1154 9.85714 18.1154Z" fill="white"/>
<path d="M5.9954 16.7633C5.9027 16.6962 5.77114 16.7146 5.70687 16.8081C5.23669 17.4921 4.98939 18.3003 5.00035 19.1264C5.01221 20.0206 5.32595 20.8862 5.89318 21.5896C6.46041 22.2929 7.2496 22.7951 8.13902 23.0185C8.96078 23.225 9.82588 23.1829 10.62 22.9006C10.7285 22.862 10.7782 22.7419 10.7332 22.6383C10.6881 22.5347 10.5656 22.4868 10.4568 22.5248C9.74749 22.7727 8.97637 22.8081 8.24357 22.6241C7.44309 22.423 6.73283 21.971 6.22232 21.338C5.71182 20.7049 5.42945 19.926 5.41877 19.1212C5.409 18.3845 5.62742 17.6636 6.04306 17.0516C6.10679 16.9578 6.0881 16.8305 5.9954 16.7633Z" fill="white"/>
<path d="M5.28144 16.7417L6.45024 17.2158C6.50873 17.2395 6.56873 17.1852 6.5487 17.1267L6.2565 16.2733C6.24271 16.233 6.19629 16.2131 6.15645 16.2303L5.27985 16.6096C5.22062 16.6353 5.22161 16.7174 5.28144 16.7417Z" fill="white"/>
<path d="M12.7184 20.8666C12.8212 20.9182 12.9478 20.8788 12.9953 20.7759C13.3109 20.0933 13.4293 19.3378 13.3356 18.5917C13.2333 17.7778 12.8833 17.0128 12.3309 16.3959C11.7786 15.7789 11.0494 15.3386 10.238 15.132C9.49414 14.9426 8.71268 14.9576 7.9792 15.1734C7.86858 15.2059 7.81192 15.3234 7.85068 15.4298C7.88944 15.5362 8.00893 15.5912 8.11972 15.5593C8.77405 15.3706 9.46988 15.3591 10.1326 15.5279C10.8628 15.7138 11.5191 16.1101 12.0162 16.6653C12.5134 17.2206 12.8284 17.9091 12.9204 18.6416C13.0039 19.3063 12.9004 19.9793 12.6228 20.5887C12.5758 20.6919 12.6157 20.815 12.7184 20.8666Z" fill="white"/>
<path d="M13.4546 20.8309L12.2863 20.3548C12.2278 20.331 12.1678 20.3855 12.1879 20.4443L12.4799 21.3012C12.4937 21.3416 12.5401 21.3617 12.5799 21.3443L13.4562 20.9635C13.5154 20.9378 13.5144 20.8553 13.4546 20.8309Z" fill="white"/>
</g>
<defs>
<linearGradient id="paint0_linear" x1="14" y1="0" x2="14" y2="28" gradientUnits="userSpaceOnUse">
<stop stop-color="#00264D"/>
<stop offset="1" stop-color="#0366CA"/>
</linearGradient>
</defs>
</svg>
