<svg width="28" height="28" viewBox="0 0 28 28" fill="none" xmlns="http://www.w3.org/2000/svg">
<path d="M14 28C21.732 28 28 21.732 28 14C28 6.26801 21.732 0 14 0C6.26801 0 0 6.26801 0 14C0 21.732 6.26801 28 14 28Z" fill="#26A17B"/>
<path fill-rule="evenodd" clip-rule="evenodd" d="M19.3134 10.3481V10.3473C19.2679 10.3505 19.033 10.3642 18.5091 10.3642C18.0908 10.3642 17.7963 10.3521 17.6928 10.3473V10.3485C16.0825 10.2797 14.8806 10.0073 14.8806 9.68138C14.8806 9.35588 16.0825 9.08349 17.6928 9.01348V10.0773C17.798 10.0845 18.0995 10.1018 18.5162 10.1018C19.016 10.1018 19.2666 10.0817 19.3134 10.0777V9.01428C20.9204 9.08389 22.1194 9.35628 22.1194 9.68138C22.1194 10.0073 20.9204 10.2789 19.3134 10.3481ZM19.3134 8.90364V7.95168H21.5557V6.5H15.4505V7.95168H17.6928V8.90323C15.8705 8.98451 14.5 9.33536 14.5 9.75541C14.5 10.1755 15.8705 10.5259 17.6928 10.6076V13.6582H19.3134V10.6068C21.1328 10.5255 22.5 10.1751 22.5 9.75541C22.5 9.33576 21.1328 8.98531 19.3134 8.90364Z" fill="white"/>
<mask id="mask0" mask-type="alpha" maskUnits="userSpaceOnUse" x="0" y="4" width="24" height="24">
<path d="M4.10051 4.1005C2.80049 5.40052 1.76925 6.94387 1.06569 8.64243C0.362121 10.341 1.60727e-07 12.1615 0 14C-1.60727e-07 15.8385 0.36212 17.659 1.06569 19.3576C1.76925 21.0561 2.80048 22.5995 4.1005 23.8995C5.40053 25.1995 6.94387 26.2307 8.64243 26.9343C10.341 27.6379 12.1615 28 14 28C15.8385 28 17.659 27.6379 19.3576 26.9343C21.0561 26.2307 22.5995 25.1995 23.8995 23.8995L14 14L4.10051 4.1005Z" fill="#C4C4C4"/>
</mask>
<g mask="url(#mask0)">
<rect width="28" height="28" rx="14" fill="url(#paint0_linear)"/>
<path d="M9.12858 21.7101C10.604 21.7101 11.8 20.5299 11.8 19.074C11.8 17.6182 10.604 16.438 9.12858 16.438C7.65319 16.438 6.45715 17.6182 6.45715 19.074C6.45715 20.5299 7.65319 21.7101 9.12858 21.7101Z" fill="#0782FF" fill-opacity="0.1"/>
<path d="M8.39999 20.5118V17.3965C7.9976 17.3965 7.67142 17.7183 7.67142 18.1154V20.5118H8.39999Z" fill="#0782FF"/>
<path d="M9.12857 17.0366C9.46388 17.0366 9.73571 16.7684 9.73571 16.4375C9.73571 16.1066 9.46388 15.8384 9.12857 15.8384C8.79325 15.8384 8.52142 16.1066 8.52142 16.4375C8.52142 16.7684 8.79325 17.0366 9.12857 17.0366Z" fill="#0782FF"/>
<path d="M9.37142 21.8298V17.3965H8.64285V21.8298H9.37142Z" fill="white"/>
<path fill-rule="evenodd" clip-rule="evenodd" d="M10.8286 18.1154V19.7929C10.8286 20.19 10.5024 20.5118 10.1 20.5118H8.64285V17.3965H10.1C10.5024 17.3965 10.8286 17.7183 10.8286 18.1154ZM9.85714 18.1154H9.37142V19.7929H9.85714C9.99127 19.7929 10.1 19.6856 10.1 19.5533V18.355C10.1 18.2227 9.99127 18.1154 9.85714 18.1154Z" fill="white"/>
<path d="M5.9954 16.7633C5.9027 16.6962 5.77114 16.7146 5.70687 16.8081C5.23669 17.4921 4.98939 18.3003 5.00035 19.1264C5.01221 20.0206 5.32595 20.8862 5.89318 21.5896C6.46041 22.2929 7.2496 22.7951 8.13902 23.0185C8.96078 23.225 9.82588 23.1829 10.62 22.9006C10.7285 22.862 10.7782 22.7419 10.7332 22.6383C10.6881 22.5347 10.5656 22.4868 10.4568 22.5248C9.74749 22.7727 8.97637 22.8081 8.24357 22.6241C7.44309 22.423 6.73283 21.971 6.22232 21.338C5.71182 20.7049 5.42945 19.926 5.41877 19.1212C5.409 18.3845 5.62742 17.6636 6.04306 17.0516C6.10679 16.9578 6.0881 16.8305 5.9954 16.7633Z" fill="white"/>
<path d="M5.28144 16.7417L6.45024 17.2158C6.50873 17.2395 6.56873 17.1852 6.5487 17.1267L6.2565 16.2733C6.24271 16.233 6.19629 16.2131 6.15645 16.2303L5.27985 16.6096C5.22062 16.6353 5.22161 16.7174 5.28144 16.7417Z" fill="white"/>
<path d="M12.7184 20.8666C12.8212 20.9182 12.9478 20.8788 12.9953 20.7759C13.3109 20.0933 13.4293 19.3378 13.3356 18.5917C13.2333 17.7778 12.8833 17.0128 12.3309 16.3959C11.7786 15.7789 11.0494 15.3386 10.238 15.132C9.49414 14.9426 8.71268 14.9576 7.9792 15.1734C7.86858 15.2059 7.81192 15.3234 7.85068 15.4298C7.88944 15.5362 8.00893 15.5912 8.11972 15.5593C8.77405 15.3706 9.46988 15.3591 10.1326 15.5279C10.8628 15.7138 11.5191 16.1101 12.0162 16.6653C12.5134 17.2206 12.8284 17.9091 12.9204 18.6416C13.0039 19.3063 12.9004 19.9793 12.6228 20.5887C12.5758 20.6919 12.6157 20.815 12.7184 20.8666Z" fill="white"/>
<path d="M13.4546 20.8309L12.2863 20.3548C12.2278 20.331 12.1678 20.3855 12.1879 20.4443L12.4799 21.3012C12.4937 21.3416 12.5401 21.3617 12.5799 21.3443L13.4562 20.9635C13.5154 20.9378 13.5144 20.8553 13.4546 20.8309Z" fill="white"/>
</g>
<defs>
<linearGradient id="paint0_linear" x1="14" y1="0" x2="14" y2="28" gradientUnits="userSpaceOnUse">
<stop stop-color="#00264D"/>
<stop offset="1" stop-color="#0366CA"/>
</linearGradient>
</defs>
</svg>
