<svg width="46" height="50" viewBox="0 0 46 50" fill="none" xmlns="http://www.w3.org/2000/svg">
<path fill-rule="evenodd" clip-rule="evenodd" d="M40.7703 49.9998V44.7915H42.3712V44.7924L44.3991 47.4096V44.7915H46V49.9998H44.3992L44.3988 50.0001L42.3712 47.3827V49.9998H40.7703Z" fill="#2BE2B3"/>
<path d="M32.8724 50.0001H38.1021V48.5508H34.4733V48.1161H38.1021V46.6668H34.4733V46.2682H38.1021V44.8153H32.8724V50.0001Z" fill="#2BE2B3"/>
<path d="M24.3341 44.7915V49.9998H25.935V48.1769H28.71V49.9998H30.3109V48.1769H28.9234L30.3109 46.6144V44.7915H28.71V46.6144H25.935V44.7915H24.3341Z" fill="#2BE2B3"/>
<path fill-rule="evenodd" clip-rule="evenodd" d="M21.6659 49.9998H15.7958V44.7915H21.6659V46.354H17.3968V48.4373H21.6659V49.9998Z" fill="#2BE2B3"/>
<path fill-rule="evenodd" clip-rule="evenodd" d="M7.89791 49.9998V44.7915H13.1276V49.9998H11.5267V48.9061H9.49884V49.9998H7.89791ZM9.49884 47.3436H11.5267V46.354H9.49884V47.3436Z" fill="#2BE2B3"/>
<path fill-rule="evenodd" clip-rule="evenodd" d="M1.83212e-06 49.9998L2.08658e-06 44.7915H1.60093V46.6144H3.84223V44.7915H5.44316L5.44316 49.9998H3.84223V48.1769H1.60093V49.9998H1.83212e-06Z" fill="#2BE2B3"/>
<path fill-rule="evenodd" clip-rule="evenodd" d="M30.0441 0.000122944L30.0441 9.47923L32.7123 9.47923L32.7123 0.00012207L35.3805 0.000122944L35.3805 9.47923L38.0487 9.47923L38.0487 0.00012207L40.7169 0.000122944L40.7169 9.47923L43.3318 9.47923V0.000122507H46L46 42.2915H43.3318L43.3318 22.4479H40.7169L40.7169 42.2915H38.0487L38.0487 22.4479H2.66822V25.052H35.3805L35.3805 42.2915H32.7123L32.7123 27.6562H2.66822V30.2083H30.0441L30.0441 42.2915H27.3759L27.3759 32.8124H18.6241V42.2915H15.9559L15.9559 32.8124H13.2877L13.2877 42.2915H10.6195L10.6195 32.8124H7.95128L7.95128 42.2915H5.28306L5.28306 32.8124H2.66822L2.66821 42.2915H0L1.9339e-06 0.000122507H2.66822V19.8437H5.28306L5.28306 0.000122507H7.95128L7.95128 19.8437H43.3318V17.2396H10.6195V0.000122507H13.2877L13.2877 14.6354H43.3318V12.0834H15.9559V0.000122289L18.6241 0.000122725V9.47923L27.3759 9.47923L27.3759 0.00012207L30.0441 0.000122944Z" fill="#2BE2B3"/>
</svg>
