<svg width="178" height="40" viewBox="0 0 178 40" fill="none" xmlns="http://www.w3.org/2000/svg">
<path fill-rule="evenodd" clip-rule="evenodd" d="M0.689764 0.887208C5.1365 6.42257 10.0167 13.3765 10.796 14.501L10.8858 14.631C11.3058 15.2285 11.6539 15.671 11.9189 15.9994C12.505 16.7475 12.678 16.9687 12.3299 17.174C12.0677 17.3272 11.7699 17.4059 11.4675 17.4021C11.1043 17.3872 10.7594 17.236 10.4995 16.9778C10.3086 16.7931 9.00605 14.8522 7.2341 12.0286C5.8866 9.86877 4.74123 8.0761 4.70979 8.04645C4.64915 7.98259 4.64915 7.98259 7.09935 12.4848C8.64672 15.3152 9.70226 17.4066 9.70226 17.5389C9.70226 17.8103 9.63039 17.954 9.3025 18.328C8.68901 19.1212 8.34965 20.0974 8.3368 21.106C8.07345 22.8894 7.2733 24.5465 6.04606 25.8499C5.5508 26.4043 5.12256 27.0169 4.77043 27.6745C4.50232 28.1818 4.36554 28.75 4.37292 29.3258C4.32718 30.0143 4.41728 30.7052 4.63792 31.3579C4.85987 32.0522 5.18312 32.7088 5.59689 33.3057C5.93438 33.759 6.18502 34.2727 6.33577 34.8201C6.33577 34.9934 6.36721 34.9934 7.09486 34.8201C8.56819 34.5563 9.93653 33.8702 11.0385 32.8427C11.2537 32.6476 11.421 32.4041 11.5271 32.1316C11.6332 31.8592 11.675 31.5653 11.6494 31.2735C11.6845 30.9791 11.6354 30.6805 11.5079 30.4137C11.1722 29.8233 10.6847 29.3369 10.0975 29.0065C9.67393 28.7858 9.30377 28.4726 9.01369 28.0893C8.7236 27.7059 8.52081 27.2621 8.41989 26.7896C8.34583 25.9191 8.56346 25.0487 9.0375 24.3195C9.56978 23.3163 9.8708 22.2035 9.91786 21.0649C9.98523 20.1937 10.0773 19.8516 10.3221 19.5756C10.4669 19.4223 10.6415 19.3011 10.8348 19.2199C11.0281 19.1386 11.2359 19.099 11.445 19.1035C12.2619 19.0524 13.0402 18.7321 13.6616 18.1912C13.877 18.0063 14.0504 17.7762 14.1698 17.5167C14.2892 17.2573 14.3518 16.9746 14.3534 16.6882L14.3758 16.2047L14.1153 15.8945C13.1631 14.761 0.0586872 0 0.000295767 0C-0.0109334 0 0.29899 0.39913 0.689764 0.887208ZM6.87477 30.213C6.97779 30.0261 7.00864 29.807 6.96131 29.5983C6.91399 29.3896 6.79187 29.2063 6.61874 29.084C6.28187 28.8559 5.75859 28.9631 5.75859 29.2619C5.75859 29.3531 5.808 29.4193 5.91805 29.4786C6.10445 29.5766 6.11792 29.6884 5.97194 29.9142C5.82597 30.14 5.83495 30.3453 6.00563 30.4821C6.07776 30.5317 6.15991 30.5644 6.24606 30.5776C6.33221 30.5908 6.42018 30.5842 6.50352 30.5584C6.58686 30.5326 6.66345 30.4882 6.72769 30.4284C6.79193 30.3687 6.84218 30.295 6.87477 30.213V30.213ZM13.2799 9.09788C12.8599 9.03173 12.8307 9.02261 13.0396 8.99296C13.6748 8.95596 14.312 9.01437 14.9305 9.1663C16.5746 9.65026 18.0272 10.6468 19.0831 12.0149L19.4559 12.4392L19.9881 12.3525C22.1634 11.9748 24.4 12.263 26.4134 13.1804C26.9265 13.4198 27.4141 13.7117 27.8687 14.0516C27.9378 14.2381 27.9831 14.4328 28.0035 14.631C28.1654 15.3865 28.0867 16.1748 27.7789 16.882C27.7071 16.9728 27.663 17.083 27.6523 17.199C27.6415 17.3149 27.6644 17.4315 27.7183 17.5343C27.7677 17.6402 27.8456 17.7298 27.9429 17.7927C28.0403 17.8557 28.1531 17.8894 28.2685 17.8901C28.7424 17.8901 29.2522 17.1033 29.488 16.0108L29.5823 15.5775L29.7687 15.7941C30.7568 16.9108 31.4329 18.2754 31.7271 19.7467L31.763 20.0477L31.5923 19.774C31.3473 19.3579 31.0163 19.0007 30.6221 18.7272C29.6045 18.1697 28.4516 17.9181 27.2983 18.0019C26.0512 17.9869 24.8122 17.7949 23.6174 17.4317C21.969 16.8775 21.138 16.1408 19.1729 13.4974C18.5872 12.6645 17.9368 11.8805 17.228 11.1528C16.1691 10.0472 14.782 9.32519 13.2799 9.09788V9.09788ZM28.2573 11.7184C28.2642 11.1078 28.3854 10.5041 28.6144 9.93947C28.6608 9.82067 28.7187 9.70683 28.7873 9.59964C28.7743 9.70554 28.7471 9.80913 28.7064 9.90754C28.5471 10.5024 28.5225 11.1262 28.6346 11.7321C28.7671 12.6604 28.8434 12.795 29.8001 13.7962C30.2493 14.266 30.7703 14.859 30.959 15.1145L31.3026 15.5706L30.959 15.2399C30.4559 14.7669 29.9209 14.3302 29.3577 13.933C29.214 13.8578 29.1938 13.8578 29.1039 13.949C29.0141 14.0402 29.0051 14.1566 28.9939 14.7473C29.0177 15.4729 28.8682 16.1936 28.5582 16.8478C28.3988 17.1671 28.3741 17.0987 28.5178 16.7384C28.6512 16.3263 28.6919 15.889 28.6368 15.4589C28.6368 13.6685 28.4279 13.2374 27.213 12.4939C26.9053 12.3069 26.3977 12.0378 26.09 11.8963C25.9004 11.8179 25.7165 11.7257 25.5398 11.6204C26.1169 11.746 26.6837 11.9161 27.2354 12.129C27.9451 12.4095 28.0619 12.446 28.1472 12.4118C28.2326 12.3776 28.2303 12.2248 28.2595 11.7184H28.2573ZM12.8284 10.35C12.7699 11.9285 13.2141 13.4842 14.0951 14.786C14.6621 15.6548 15.5332 16.272 16.5318 16.5126C17.0281 16.5582 17.1764 16.3985 16.9518 16.0564C16.6384 15.5866 16.3721 15.0862 16.1568 14.5625C16.0939 14.3709 15.9569 13.8076 15.8536 13.3081C15.5077 11.6113 15.1574 10.9476 14.3489 10.4458C13.9445 10.2201 13.5104 10.0542 13.0598 9.95315L12.8644 9.91666L12.8284 10.35ZM27.2219 23.7608C23.2311 22.1118 21.832 20.6818 21.832 18.2687C21.8235 18.0532 21.8325 17.8373 21.8589 17.6233C21.9794 17.7016 22.0942 17.7885 22.2025 17.8833C23.4601 18.7192 24.9242 19.1785 26.4269 19.2084C27.4686 19.3332 28.4969 19.5538 29.4992 19.8675C30.5929 20.1629 31.5799 20.7715 32.3424 21.6207C33.105 22.4699 33.6109 23.5239 33.8 24.6571C33.8949 25.5152 33.8525 26.3832 33.6742 27.2275C33.5402 27.7576 33.3209 28.2616 33.0252 28.7191C32.996 28.7191 32.9668 28.6119 32.9578 28.45C32.9262 28.002 32.8057 27.5651 32.6034 27.1657C32.4012 26.7663 32.1214 26.4126 31.781 26.1259C30.3966 25.093 28.8582 24.2922 27.2242 23.7539L27.2219 23.7608ZM24.2283 23.5783C24.3099 23.8629 24.3744 24.1524 24.4214 24.445C24.5978 25.3445 24.4231 26.2785 23.934 27.0497C23.445 27.8208 22.68 28.3687 21.8005 28.5777C21.5939 28.6415 20.7854 28.8058 20.0039 28.938C18.9667 29.0537 17.9528 29.3282 16.9967 29.7523C16.6092 29.9219 16.2459 30.1436 15.9165 30.4114C16.0048 30.4073 16.0917 30.3864 16.1725 30.3498C17.2763 29.989 18.4267 29.7961 19.5861 29.7774C20.188 29.7454 20.873 29.6952 21.1088 29.6633C22.2418 29.5896 23.3118 29.1085 24.1272 28.3063C24.5086 27.9226 24.7969 27.4541 24.9694 26.9378C25.0955 26.5832 25.1437 26.2049 25.1109 25.8294C25.145 25.4428 25.0944 25.0534 24.9626 24.689C24.8275 24.25 24.6085 23.8423 24.3181 23.4894L24.1294 23.2613L24.2283 23.5783ZM26.2495 27.7771C25.7332 26.7417 25.6047 25.5511 25.8879 24.4267C25.9194 24.315 25.9688 24.2215 26.0002 24.2215C26.1001 24.2589 26.1939 24.3112 26.2787 24.3766C26.5235 24.5453 27.0131 24.8327 28.3179 25.5603C29.5286 26.1449 30.6127 26.9682 31.507 27.9824C32.0675 28.7049 32.4328 29.5633 32.567 30.473C32.6493 31.2902 32.6153 32.1152 32.4659 32.9225C32.2798 33.7504 31.9248 34.5295 31.4238 35.2095C30.9229 35.8895 30.2871 36.4554 29.5576 36.8705C29.4208 36.9518 29.279 37.0241 29.1331 37.0871C29.1679 36.9271 29.2262 36.7734 29.3061 36.631C29.5456 36.1382 29.6846 35.6013 29.7147 35.0526C29.7448 34.5039 29.6654 33.9547 29.4812 33.4379C29.0657 32.3852 28.5225 31.3892 27.8642 30.473C27.2577 29.6165 26.7186 28.7128 26.2517 27.7703L26.2495 27.7771ZM16.2646 31.6042C14.4128 31.9688 12.688 32.8214 11.2631 34.0765L10.8139 34.4574L11.2002 34.519C11.9707 34.5593 12.7237 34.767 13.4083 35.1282C14.0929 35.4894 14.6932 35.9957 15.1686 36.6127C15.5968 37.2106 16.2146 37.6407 16.9181 37.8307C17.3681 37.9705 17.8535 37.934 18.2783 37.7284C18.7032 37.5228 19.0368 37.163 19.2133 36.7199C19.3603 36.2616 19.3452 35.7655 19.1707 35.3173C19.0717 35.1293 18.9337 34.9654 18.766 34.8371C18.5984 34.7088 18.4052 34.6192 18.2 34.5745C17.9947 34.5298 17.7824 34.531 17.5777 34.5782C17.373 34.6253 17.1808 34.7172 17.0147 34.8474C16.9026 34.9332 16.8165 35.0491 16.766 35.182C16.7156 35.3149 16.7029 35.4595 16.7293 35.5994C16.7557 35.7393 16.8203 35.8689 16.9156 35.9735C17.0109 36.078 17.1331 36.1533 17.2684 36.1908C17.4032 36.2204 17.4009 36.2136 17.2348 36.1361C17.1221 36.0976 17.0248 36.0229 16.9575 35.9234C16.8903 35.8238 16.8567 35.7047 16.8619 35.5841C16.8762 35.4335 16.9281 35.289 17.0126 35.1644C17.0972 35.0398 17.2117 34.9391 17.3453 34.872C17.4789 34.8048 17.6271 34.7734 17.7759 34.7807C17.9248 34.788 18.0694 34.8337 18.196 34.9136C18.4007 34.9818 18.5769 35.1177 18.6966 35.2996C18.8163 35.4816 18.8725 35.699 18.8562 35.9171C18.8593 36.0959 18.8244 36.2733 18.7539 36.4373C18.6834 36.6012 18.579 36.7477 18.4477 36.867C18.3164 36.9862 18.1614 37.0753 17.9932 37.1283C17.825 37.1812 17.6475 37.1968 17.4728 37.1738C17.0351 37.1024 16.6327 36.8868 16.3274 36.5603C16.1754 36.3771 16.0668 36.161 16.0099 35.9285C15.953 35.696 15.9494 35.4533 15.9993 35.2192C16.0491 34.9851 16.1512 34.7657 16.2977 34.5778C16.4441 34.39 16.631 34.2388 16.844 34.1358C17.2215 33.9676 17.6351 33.9002 18.0455 33.9401C18.4559 33.9801 18.8494 34.126 19.1886 34.3639C20.0151 34.9181 20.3654 35.4268 21.0774 37.1008C21.2706 37.5665 21.4919 38.0197 21.7399 38.4579C21.9803 38.9106 22.3336 39.2913 22.7643 39.5619C23.1951 39.8324 23.6883 39.9834 24.1946 39.9996C24.6999 40.0077 25.1987 39.8836 25.6431 39.6393C25.9654 39.4905 26.2607 39.2877 26.5168 39.0394C26.3964 39.0609 26.2793 39.0985 26.1686 39.1512C25.7351 39.3657 25.2571 39.4709 24.775 39.4578C24.293 39.4447 23.8211 39.3137 23.3995 39.0759C22.9323 38.6518 22.6224 38.0779 22.5214 37.4498C22.4922 37.322 22.4002 36.7655 22.3126 36.1954C22.2398 35.1992 21.925 34.2369 21.3963 33.3946C20.7685 32.557 19.8725 31.9682 18.863 31.7297C18.0101 31.5389 17.1315 31.4965 16.2646 31.6042V31.6042ZM13.9154 20.5882C13.9917 20.3119 14.1302 20.0574 14.32 19.8449C14.5099 19.6323 14.7458 19.4675 15.0091 19.3635C15.4243 19.2777 15.8552 19.3198 16.2466 19.4844C16.5201 19.6179 16.7502 19.8284 16.9094 20.0907C17.0686 20.3531 17.1504 20.6564 17.1449 20.9646C17.0349 21.5667 16.0804 22.0502 14.9844 22.057C14.4252 22.057 14.2164 21.9841 14.003 21.6898C13.8582 21.3417 13.8274 20.9555 13.9154 20.5882ZM16.1006 19.6988C16.1627 19.7252 16.2181 19.7654 16.2628 19.8164C16.3075 19.8675 16.3403 19.9281 16.3589 19.9938C16.3774 20.0595 16.3812 20.1286 16.3699 20.1959C16.3586 20.2633 16.3326 20.3272 16.2938 20.383C16.0992 20.588 15.8329 20.7069 15.5526 20.7137C15.1574 20.7137 14.7239 20.4263 14.7239 20.1618C14.7239 19.6395 15.5526 19.3566 16.0984 19.6988H16.1006ZM102.071 21.2177C101.835 20.5533 101.747 19.8439 101.814 19.1408C101.881 18.4377 102.101 17.7584 102.458 17.1522C102.815 16.5459 103.3 16.0277 103.878 15.6351C104.456 15.2425 105.113 14.9852 105.801 14.8818C107.697 14.6759 109.611 14.725 111.494 15.0278C111.753 15.1282 111.863 15.5113 111.867 16.2959C111.863 16.8567 111.912 17.4166 112.015 17.9677C112.137 18.4238 112.065 18.5128 111.593 18.5037C111.166 18.5037 110.908 18.2414 110.547 17.4728C109.969 16.2434 109.273 15.8534 107.645 15.8466C105.568 15.8466 104.052 17.2606 104.296 18.9758C104.458 20.091 105.556 21.1904 108.02 22.7002C109.72 23.548 111.186 24.8114 112.287 26.3768C112.627 27.0555 112.817 27.8011 112.844 28.5619C112.871 29.3227 112.735 30.0804 112.445 30.7825C112.155 31.4845 111.719 32.1141 111.165 32.6274C110.611 33.1407 109.954 33.5254 109.239 33.755C107.179 34.5501 104.914 34.616 102.812 33.942L101.554 33.5086V31.456C101.554 29.6063 101.597 29.4033 102.003 29.4033C102.352 29.4033 102.5 29.6314 102.623 30.3658C102.747 31.224 103.186 32.0026 103.853 32.5442C104.52 33.0857 105.365 33.3498 106.217 33.2829C107.084 33.3228 107.938 33.0457 108.621 32.5017C109.305 31.9578 109.775 31.1831 109.945 30.3179C110.061 29.9865 110.099 29.6321 110.055 29.2831C110.012 28.9341 109.889 28.6003 109.695 28.3086C109.181 27.2343 108.296 26.5205 105.291 24.7597C103.829 24.0133 102.684 22.7518 102.071 21.2109V21.2177ZM43.1538 16.0906C42.7428 16.0906 42.5834 15.9652 42.5834 15.6048C42.5834 15.1487 42.7428 15.119 45.9521 15.119C48.9346 15.119 49.3209 15.1646 49.249 15.5113C49.2063 15.728 48.7998 16.0268 48.3327 16.1773L47.4928 16.451L47.4209 22.6364C47.2984 25.0236 47.366 27.4171 47.623 29.7933C47.9212 30.7529 48.5363 31.5787 49.3644 32.1313C50.1924 32.6839 51.1829 32.9295 52.1686 32.8267C52.8711 32.8685 53.5741 32.7524 54.2274 32.4866C54.8807 32.2209 55.4683 31.8122 55.9483 31.2895C57.2351 30.0533 57.4395 28.8787 57.4373 22.7755C57.4373 16.7543 57.3295 16.2571 56.0561 16.134C55.4767 16.0769 55.2835 15.9401 55.2835 15.5889C55.2835 15.151 55.4744 15.119 58.1604 15.119C60.8464 15.119 61.0373 15.1464 61.0373 15.6048C61.0457 15.6657 61.0411 15.7277 61.0238 15.7866C61.0065 15.8455 60.9769 15.9 60.9371 15.9463C60.8973 15.9926 60.8481 16.0296 60.7929 16.0549C60.7378 16.0802 60.6779 16.0932 60.6174 16.0929C59.5079 16.0929 59.4944 16.2092 59.3372 22.812C59.1823 29.6679 59.0385 30.4798 57.6686 32.163C57.0663 32.8032 56.3587 33.3318 55.5777 33.7253C54.418 34.3359 53.1031 34.5745 51.807 34.4095C50.582 34.5333 49.3461 34.3411 48.2137 33.8508C46.8949 33.2986 45.8069 32.2969 45.1369 31.0181C44.654 30.1058 44.6114 29.62 44.4991 23.4734C44.38 16.4213 44.3104 16.0906 43.1538 16.0906ZM65.5851 16.0906C65.0371 16.0906 64.8777 15.9812 64.8777 15.6048C64.8777 15.1487 65.0304 15.1213 67.3346 15.1487L69.7915 15.1692L70.9661 16.5377C71.6129 17.2949 73.7195 19.66 75.6464 21.7834C77.5733 23.9067 79.79 26.4019 80.567 27.3027C81.0404 27.9146 81.5866 28.4647 82.193 28.9403C82.386 27.0013 82.4333 25.0502 82.3345 23.1039L82.2581 17.2606L81.5844 16.6745C81.2307 16.3583 80.7934 16.1545 80.3267 16.0883C79.8978 16.0883 79.7406 15.9561 79.7406 15.5957C79.7406 15.1213 79.8618 15.1053 83.0374 15.1715C85.7324 15.2262 86.3343 15.3038 86.3343 15.5934C86.3343 15.801 85.9997 16.0154 85.5325 16.1134C85.1447 16.1836 84.7767 16.3393 84.4546 16.5696C84.0885 19.5144 83.9728 22.4858 84.1087 25.4508L84.0391 34.0515H83.3451C82.7477 34.0515 82.0358 33.3672 78.2291 29.1387C75.7969 26.4361 72.9582 23.2248 71.9206 22.0023C71.2878 21.2031 70.5972 20.4529 69.8544 19.7581C69.5997 23.7316 69.6245 27.7186 69.9286 31.6886C70.1531 32.496 70.3036 32.6351 71.2468 32.8906C72.0059 33.0958 72.3136 33.3034 72.3136 33.6136C72.3136 34.0104 72.0239 34.0492 68.9584 34.0492C65.8367 34.0492 65.6031 34.0173 65.6031 33.593C65.6031 33.2829 65.8277 33.0936 66.3105 32.9955C67.7748 32.699 67.8826 32.2292 67.9545 25.0425C68.0575 22.5644 67.9982 20.082 67.777 17.6119C67.669 17.1237 67.3827 16.6954 66.976 16.4131C66.5692 16.1308 66.0722 16.0155 65.5851 16.0906V16.0906ZM90.7204 16.0906C90.2061 16.0906 90.0466 15.9743 90.0466 15.6048C90.0466 15.1487 90.2061 15.119 93.64 15.119C97.0738 15.119 97.2333 15.1396 97.2333 15.6048C97.2333 15.9606 97.0738 16.0906 96.6337 16.0906C96.2259 16.1257 95.8419 16.3001 95.5444 16.5855C95.0706 17.0668 95.0571 17.304 95.1245 24.7324C95.1896 31.9828 95.2188 32.4025 95.659 32.7286C95.9624 32.934 96.3145 33.053 96.6786 33.073C97.0716 33.073 97.2333 33.2122 97.2333 33.5588C97.2333 34.015 97.0738 34.0446 93.64 34.0446C90.287 34.0446 90.0466 34.015 90.0466 33.5885C90.0466 33.2464 90.2712 33.0958 90.9966 32.9795C92.416 32.7514 92.4879 32.2793 92.4003 23.893C92.3306 17.1763 92.2992 16.7589 91.859 16.4327C91.5162 16.2178 91.1231 16.0997 90.7204 16.0906V16.0906ZM115.802 16.0906C115.654 16.0996 115.508 16.056 115.388 15.9673C115.268 15.8787 115.183 15.7505 115.146 15.6048C115.025 15.135 115.146 15.119 118.593 15.119C122.007 15.119 122.166 15.1396 122.166 15.6048C122.166 15.9766 122.007 16.0906 121.477 16.0906C119.968 16.0906 120.001 16.3689 122.285 22.7048C123.449 25.9343 124.576 29.0019 124.794 29.5219L125.189 30.4684L127.02 25.5215C129.176 19.6965 129.454 18.62 129.088 17.5571C128.911 17.1558 128.634 16.8086 128.284 16.5504C127.933 16.2923 127.522 16.1321 127.092 16.0861C126.88 16.0861 126.721 15.8785 126.721 15.6003C126.721 15.1441 126.88 15.1145 130.436 15.1145C133.991 15.1145 134.15 15.135 134.15 15.6003C134.15 15.9447 133.991 16.0861 133.598 16.0861C132.589 16.0861 132.145 16.6289 132.291 17.6826C133.562 21.957 135.046 26.1635 136.735 30.286C137.016 30.0009 141.582 17.4157 141.582 16.9254C141.582 16.3369 141.175 16.0815 140.234 16.0815C139.814 16.0815 139.655 15.9469 139.655 15.5957C139.655 15.1396 139.814 15.1099 142.532 15.1099C144.971 15.1099 145.408 15.1669 145.408 15.4862C145.408 15.6938 145.11 15.9675 144.735 16.0975C143.913 16.3871 143.706 16.7178 142.675 19.3977L139.531 27.5833C138.253 30.9086 137.151 33.7732 137.083 33.9511C137.016 34.129 136.621 34.2727 136.203 34.2727H135.444L133.721 29.7249C132.773 27.2161 131.655 24.2511 131.235 23.1381C130.514 21.2177 130.454 21.1333 130.184 21.683C130.027 22.0023 128.888 24.9718 127.655 28.2812L125.409 34.2978L124.574 34.2248L123.739 34.1518L120.549 25.6811C119.478 22.6057 118.245 19.5907 116.855 16.6494C116.576 16.3451 116.203 16.1477 115.797 16.0906H115.802ZM163.732 16.1933C163.703 16.0539 163.689 15.9116 163.692 15.769C163.687 15.7055 163.701 15.6418 163.732 15.5866C163.782 15.5227 163.8 15.5204 163.975 15.5045C164.621 15.4429 165.92 15.3357 167.004 15.2878L167.334 15.2718C168.527 15.2171 170.661 15.1441 172.129 15.2171C173.328 15.1633 174.511 15.505 175.502 16.1912C176.493 16.8774 177.239 17.8712 177.627 19.0237C177.953 19.9747 178.067 20.9871 177.962 21.9884C177.857 22.9896 177.535 23.9547 177.018 24.8145C176.459 25.645 175.693 26.3103 174.798 26.7429C173.904 27.1755 172.912 27.36 171.925 27.2777C170.807 27.3902 169.685 27.1092 168.747 26.4817C168.651 26.4133 168.558 26.3471 168.457 26.2901V29.1935C168.392 30.2951 168.456 31.4007 168.648 32.4869C168.853 32.9613 169.322 33.2555 170.22 33.479C170.401 33.5174 170.574 33.5852 170.732 33.6797C170.793 33.7767 170.829 33.8878 170.837 34.0026C170.844 34.1174 170.823 34.2323 170.775 34.3366C170.743 34.3695 170.705 34.3945 170.662 34.4095C170.619 34.4246 170.573 34.4293 170.528 34.4232L166.553 34.3981H164.154C164.154 34.3981 163.903 34.446 163.809 34.3434C163.747 34.2497 163.717 34.1386 163.723 34.0264C163.733 33.9011 163.78 33.7817 163.858 33.6843C164.019 33.5833 164.194 33.5065 164.377 33.4562C165.302 33.1916 165.704 32.9134 165.913 32.3888C166.2 29.8588 166.257 27.3072 166.081 24.7666C166.216 22.2522 166.167 19.7311 165.933 17.2242C165.731 16.7406 165.221 16.6129 164.496 16.4305L164.047 16.3119C164.047 16.3119 163.773 16.2845 163.732 16.1933ZM175.312 21.1562C175.382 21.7914 175.324 22.4344 175.141 23.0461C174.958 23.6578 174.655 24.2254 174.249 24.7141C173.61 25.189 172.881 25.5228 172.107 25.6941C171.334 25.8653 170.533 25.8703 169.758 25.7085C169.446 25.6496 169.147 25.5394 168.871 25.3824H168.85L168.493 25.1908L168.469 21.667C168.455 19.4707 168.469 18.0407 168.529 17.8354C168.576 16.6768 170.256 16.5331 171.078 16.5764C171.659 16.5714 172.235 16.6887 172.769 16.9208C173.303 17.1529 173.785 17.4949 174.182 17.9251C174.58 18.3553 174.886 18.8645 175.08 19.4206C175.274 19.9767 175.353 20.5676 175.312 21.1562V21.1562ZM152.694 15.2559L152.263 15.4224L151.324 15.915L150.65 17.6278C150.28 18.5698 149.599 20.3009 149.139 21.4732C148.303 23.608 147.751 25.0106 147.169 26.4748C146.999 26.9059 146.482 28.2173 146.022 29.3896C145.561 30.5619 145.101 31.6704 145 31.8688L144.946 31.9714C144.688 32.4618 144.241 33.3148 143.452 33.4448C143.24 33.4616 143.036 33.5322 142.857 33.6501C142.813 33.6853 142.777 33.7299 142.752 33.7807C142.727 33.8316 142.713 33.8874 142.711 33.9443V34.1473C142.718 34.178 142.731 34.2071 142.749 34.2326C142.767 34.2581 142.79 34.2795 142.817 34.2955C142.887 34.3286 142.964 34.3465 143.041 34.348L145.927 34.3137H148.901C148.901 34.3137 149.112 34.3388 149.193 34.2704C149.243 34.2252 149.279 34.1656 149.296 34.0994V33.885C149.276 33.764 149.22 33.6521 149.137 33.5634C148.958 33.4846 148.769 33.4331 148.575 33.4106C148.357 33.3969 148.146 33.3323 147.957 33.222C147.768 33.1117 147.606 32.9585 147.485 32.7745C147.364 32.5904 147.286 32.3804 147.258 32.1608C147.229 31.9412 147.251 31.718 147.322 31.5084C147.394 31.1025 147.874 29.604 148.416 28.0873L148.602 27.565L151.728 27.5399C153.449 27.5263 154.933 27.5399 155.027 27.5605C155.162 27.5947 155.353 27.987 155.91 29.3851C156.754 31.4993 156.822 31.757 156.635 32.1516L156.599 32.2314C156.502 32.5417 156.322 32.8184 156.079 33.0306C155.836 33.2429 155.539 33.3823 155.223 33.4334C155.223 33.4334 154.774 33.4493 154.655 33.5885C154.621 33.6298 154.596 33.6775 154.58 33.7287C154.565 33.78 154.56 33.8339 154.565 33.8872V34.0994C154.58 34.1638 154.611 34.2234 154.655 34.2727C154.701 34.3031 154.757 34.316 154.812 34.3092L157.65 34.2887H161.639C161.639 34.2887 161.796 34.3046 161.839 34.2453C161.865 34.2056 161.883 34.1604 161.891 34.113V33.8325C161.88 33.7494 161.847 33.6707 161.796 33.6044C161.607 33.52 161.406 33.4631 161.201 33.4357C160.929 33.3633 160.676 33.229 160.462 33.0429C160.248 32.8569 160.078 32.6238 159.966 32.3614C159.903 32.2565 159.847 32.1607 159.791 32.0832C159.468 31.4889 159.188 30.8714 158.953 30.2358L157.361 26.0757L155.629 21.553L153.976 17.1968L153.752 16.5924C153.401 15.6801 153.262 15.3083 153.222 15.2582C153.078 15.0939 152.694 15.2559 152.694 15.2559ZM152.508 20.8277C152.382 20.5175 152.159 19.9588 152.016 19.5893C151.753 18.9051 151.652 18.7591 151.567 18.9051C151.542 18.9461 151.378 19.4068 151.198 19.9291C150.042 23.3115 149.518 24.8327 149.402 25.1201C149.349 25.2534 149.309 25.3916 149.283 25.5329C150.13 25.6302 150.984 25.6584 151.836 25.6173C153.24 25.6173 154.39 25.599 154.39 25.5785C154.39 25.558 154.264 25.2341 154.111 24.8601C153.958 24.486 153.583 23.5555 153.278 22.7892C152.972 22.0228 152.629 21.1379 152.51 20.8277H152.508Z" fill="#FF007A"/>
</svg>
