<svg width="28" height="28" viewBox="0 0 28 28" fill="none" xmlns="http://www.w3.org/2000/svg">
<path d="M14 28C21.732 28 28 21.732 28 14C28 6.26801 21.732 0 14 0C6.26801 0 0 6.26801 0 14C0 21.732 6.26801 28 14 28Z" fill="#2775C9"/>
<path d="M19.25 13.5C18.4094 13.5 17.5877 13.2507 16.8888 12.7837C16.1899 12.3167 15.6452 11.653 15.3235 10.8764C15.0018 10.0998 14.9177 9.24529 15.0817 8.42087C15.2457 7.59645 15.6504 6.83917 16.2448 6.2448C16.8392 5.65042 17.5964 5.24565 18.4209 5.08166C19.2453 4.91768 20.0998 5.00184 20.8764 5.32351C21.653 5.64519 22.3167 6.18992 22.7837 6.88883C23.2507 7.58774 23.5 8.40943 23.5 9.25C23.5 10.3772 23.0522 11.4582 22.2552 12.2552C21.4582 13.0522 20.3772 13.5 19.25 13.5ZM18.9968 7.67298C18.7643 7.68451 18.5444 7.78255 18.3805 7.94785C18.2165 8.11315 18.1203 8.33376 18.1106 8.56638C18.1106 9.00404 18.3783 9.28979 18.9462 9.40915L19.344 9.50319C19.7311 9.59362 19.8902 9.72383 19.8902 9.94447C19.8902 10.1651 19.6117 10.3821 19.25 10.3821C19.1215 10.3939 18.9923 10.3693 18.8772 10.3111C18.7621 10.2529 18.6656 10.1634 18.5989 10.053C18.5792 10.0111 18.548 9.9756 18.509 9.95064C18.4699 9.92568 18.4246 9.91226 18.3783 9.91192H18.1649C18.1485 9.91496 18.1328 9.92121 18.1189 9.93032C18.1049 9.93943 18.0928 9.95122 18.0834 9.965C18.074 9.97878 18.0674 9.99429 18.064 10.0106C18.0606 10.027 18.0605 10.0438 18.0636 10.0602C18.1156 10.2724 18.2365 10.4613 18.4073 10.5974C18.5781 10.7336 18.7893 10.8092 19.0077 10.8126V11.1164C19.0077 11.184 19.0345 11.2489 19.0823 11.2967C19.1302 11.3445 19.195 11.3714 19.2627 11.3714C19.3303 11.3714 19.3952 11.3445 19.443 11.2967C19.4908 11.2489 19.5177 11.184 19.5177 11.1164V10.8089C19.7646 10.8061 20.0007 10.707 20.1757 10.5327C20.3507 10.3584 20.4507 10.1227 20.4545 9.87575C20.4545 9.41638 20.1904 9.15234 19.5647 9.01851L19.203 8.93894C18.8413 8.84851 18.6713 8.72915 18.6713 8.5266C18.6713 8.32404 18.8883 8.09979 19.25 8.09979C19.3639 8.08789 19.4788 8.10922 19.5809 8.16121C19.6829 8.2132 19.7678 8.29362 19.8251 8.39277C19.8484 8.44228 19.8852 8.48419 19.9312 8.51364C19.9773 8.54308 20.0308 8.55887 20.0855 8.55915H20.2555C20.2942 8.5497 20.3276 8.52545 20.3485 8.49164C20.3695 8.45782 20.3764 8.41712 20.3677 8.3783C20.3187 8.18241 20.209 8.00701 20.0545 7.8771C19.8999 7.7472 19.7082 7.66943 19.5068 7.65489V7.40532C19.5068 7.33769 19.4799 7.27283 19.4321 7.22501C19.3843 7.17719 19.3194 7.15032 19.2518 7.15032C19.1842 7.15032 19.1193 7.17719 19.0715 7.22501C19.0237 7.27283 18.9968 7.33769 18.9968 7.40532V7.67298ZM16.0634 9.25C16.0638 9.91628 16.2735 10.5656 16.663 11.1062C17.0524 11.6469 17.6018 12.0515 18.2336 12.263H18.2843C18.3274 12.263 18.3688 12.2458 18.3993 12.2153C18.4299 12.1848 18.447 12.1434 18.447 12.1002V12.0243C18.4471 11.9569 18.4273 11.8911 18.3899 11.8351C18.3526 11.779 18.2994 11.7354 18.2372 11.7096C17.7452 11.511 17.3237 11.1698 17.0269 10.73C16.7301 10.2901 16.5715 9.77159 16.5715 9.24096C16.5715 8.71033 16.7301 8.19181 17.0269 7.75194C17.3237 7.31208 17.7452 6.97095 18.2372 6.77234C18.2991 6.74719 18.3522 6.70418 18.3895 6.64878C18.4269 6.59337 18.4469 6.5281 18.447 6.46128V6.37809C18.4473 6.35366 18.4416 6.32954 18.4305 6.30777C18.4195 6.28599 18.4033 6.26721 18.3834 6.25301C18.3635 6.23881 18.3405 6.22962 18.3163 6.22621C18.2922 6.22279 18.2675 6.22526 18.2445 6.23341C17.61 6.44323 17.0578 6.84761 16.6663 7.38913C16.2748 7.93065 16.0638 8.58177 16.0634 9.25ZM22.4366 9.25C22.4354 8.58434 22.2253 7.93583 21.836 7.39592C21.4466 6.85601 20.8976 6.45192 20.2664 6.24064H20.2121C20.167 6.24064 20.1238 6.25855 20.0919 6.29043C20.06 6.32231 20.0421 6.36555 20.0421 6.41064V6.4649C20.0436 6.53466 20.0652 6.60251 20.1043 6.66027C20.1435 6.71803 20.1985 6.76323 20.2628 6.79043C20.7537 6.98962 21.174 7.33077 21.47 7.77022C21.7659 8.20967 21.924 8.72743 21.924 9.25724C21.924 9.78704 21.7659 10.3048 21.47 10.7442C21.174 11.1837 20.7537 11.5248 20.2628 11.724C20.1997 11.7515 20.1458 11.7964 20.1074 11.8534C20.069 11.9104 20.0476 11.9772 20.0457 12.046V12.1074C20.0461 12.1343 20.0527 12.1606 20.0651 12.1844C20.0776 12.2081 20.0955 12.2286 20.1173 12.2441C20.1392 12.2596 20.1644 12.2698 20.191 12.2737C20.2175 12.2776 20.2446 12.2752 20.27 12.2666C20.9017 12.0543 21.4508 11.6489 21.8396 11.1075C22.2283 10.5662 22.4372 9.91645 22.4366 9.25Z" fill="white"/>
<mask id="mask0" mask-type="alpha" maskUnits="userSpaceOnUse" x="0" y="4" width="24" height="24">
<path d="M4.10051 4.1005C2.80049 5.40052 1.76925 6.94387 1.06569 8.64243C0.362121 10.341 1.60727e-07 12.1615 0 14C-1.60727e-07 15.8385 0.36212 17.659 1.06569 19.3576C1.76925 21.0561 2.80048 22.5995 4.1005 23.8995C5.40053 25.1995 6.94387 26.2307 8.64243 26.9343C10.341 27.6379 12.1615 28 14 28C15.8385 28 17.659 27.6379 19.3576 26.9343C21.0561 26.2307 22.5995 25.1995 23.8995 23.8995L14 14L4.10051 4.1005Z" fill="#C4C4C4"/>
</mask>
<g mask="url(#mask0)">
<rect width="28" height="28" rx="14" fill="url(#paint0_linear)"/>
<path d="M9.12858 21.7101C10.604 21.7101 11.8 20.5299 11.8 19.074C11.8 17.6182 10.604 16.438 9.12858 16.438C7.65319 16.438 6.45715 17.6182 6.45715 19.074C6.45715 20.5299 7.65319 21.7101 9.12858 21.7101Z" fill="#0782FF" fill-opacity="0.1"/>
<path d="M8.39999 20.5118V17.3965C7.9976 17.3965 7.67142 17.7183 7.67142 18.1154V20.5118H8.39999Z" fill="#0782FF"/>
<path d="M9.12857 17.0366C9.46388 17.0366 9.73571 16.7684 9.73571 16.4375C9.73571 16.1066 9.46388 15.8384 9.12857 15.8384C8.79325 15.8384 8.52142 16.1066 8.52142 16.4375C8.52142 16.7684 8.79325 17.0366 9.12857 17.0366Z" fill="#0782FF"/>
<path d="M9.37142 21.8298V17.3965H8.64285V21.8298H9.37142Z" fill="white"/>
<path fill-rule="evenodd" clip-rule="evenodd" d="M10.8286 18.1154V19.7929C10.8286 20.19 10.5024 20.5118 10.1 20.5118H8.64285V17.3965H10.1C10.5024 17.3965 10.8286 17.7183 10.8286 18.1154ZM9.85714 18.1154H9.37142V19.7929H9.85714C9.99127 19.7929 10.1 19.6856 10.1 19.5533V18.355C10.1 18.2227 9.99127 18.1154 9.85714 18.1154Z" fill="white"/>
<path d="M5.9954 16.7633C5.9027 16.6962 5.77114 16.7146 5.70687 16.8081C5.23669 17.4921 4.98939 18.3003 5.00035 19.1264C5.01221 20.0206 5.32595 20.8862 5.89318 21.5896C6.46041 22.2929 7.2496 22.7951 8.13902 23.0185C8.96078 23.225 9.82588 23.1829 10.62 22.9006C10.7285 22.862 10.7782 22.7419 10.7332 22.6383C10.6881 22.5347 10.5656 22.4868 10.4568 22.5248C9.74749 22.7727 8.97637 22.8081 8.24357 22.6241C7.44309 22.423 6.73283 21.971 6.22232 21.338C5.71182 20.7049 5.42945 19.926 5.41877 19.1212C5.409 18.3845 5.62742 17.6636 6.04306 17.0516C6.10679 16.9578 6.0881 16.8305 5.9954 16.7633Z" fill="white"/>
<path d="M5.28144 16.7417L6.45024 17.2158C6.50873 17.2395 6.56873 17.1852 6.5487 17.1267L6.2565 16.2733C6.24271 16.233 6.19629 16.2131 6.15645 16.2303L5.27985 16.6096C5.22062 16.6353 5.22161 16.7174 5.28144 16.7417Z" fill="white"/>
<path d="M12.7184 20.8666C12.8212 20.9182 12.9478 20.8788 12.9953 20.7759C13.3109 20.0933 13.4293 19.3378 13.3356 18.5917C13.2333 17.7778 12.8833 17.0128 12.3309 16.3959C11.7786 15.7789 11.0494 15.3386 10.238 15.132C9.49414 14.9426 8.71268 14.9576 7.9792 15.1734C7.86858 15.2059 7.81192 15.3234 7.85068 15.4298C7.88944 15.5362 8.00893 15.5912 8.11972 15.5593C8.77405 15.3706 9.46988 15.3591 10.1326 15.5279C10.8628 15.7138 11.5191 16.1101 12.0162 16.6653C12.5134 17.2206 12.8284 17.9091 12.9204 18.6416C13.0039 19.3063 12.9004 19.9793 12.6228 20.5887C12.5758 20.6919 12.6157 20.815 12.7184 20.8666Z" fill="white"/>
<path d="M13.4546 20.8309L12.2863 20.3548C12.2278 20.331 12.1678 20.3855 12.1879 20.4443L12.4799 21.3012C12.4937 21.3416 12.5401 21.3617 12.5799 21.3443L13.4562 20.9635C13.5154 20.9378 13.5144 20.8553 13.4546 20.8309Z" fill="white"/>
</g>
<defs>
<linearGradient id="paint0_linear" x1="14" y1="0" x2="14" y2="28" gradientUnits="userSpaceOnUse">
<stop stop-color="#00264D"/>
<stop offset="1" stop-color="#0366CA"/>
</linearGradient>
</defs>
</svg>
