<svg width="12" height="12" viewBox="0 0 12 12" fill="none" xmlns="http://www.w3.org/2000/svg">
<path fill-rule="evenodd" clip-rule="evenodd" d="M11.6486 2.04853C12.1171 1.5799 12.1171 0.820106 11.6486 0.351473C11.1799 -0.117158 10.4201 -0.117158 9.95146 0.351473L6.00001 4.30295L2.04853 0.351473C1.5799 -0.117158 0.820106 -0.117158 0.351473 0.351473C-0.117158 0.820106 -0.117158 1.5799 0.351473 2.04853L4.30295 6.00001L0.351473 9.95146C-0.117158 10.4201 -0.117158 11.1799 0.351473 11.6486C0.820106 12.1171 1.5799 12.1171 2.04853 11.6486L6.00001 7.69705L9.95146 11.6486C10.4201 12.1171 11.1799 12.1171 11.6486 11.6486C12.1171 11.1799 12.1171 10.4201 11.6486 9.95146L7.69707 6.00001L11.6486 2.04853Z" fill="currentColor"/>
</svg>
