<svg width="20" height="20" viewBox="0 0 20 20" fill="none" xmlns="http://www.w3.org/2000/svg">
<path d="M10 0C4.48593 0 0 4.48593 0 10C0 15.5141 4.48593 20 10 20C15.5141 20 20 15.5141 20 10C20 4.48593 15.5141 0 10 0ZM10 18.5715C5.27374 18.5715 1.42853 14.7263 1.42853 10C1.42853 5.27374 5.27374 1.42853 10 1.42853C14.7263 1.42853 18.5715 5.27374 18.5715 10C18.5715 14.7263 14.7263 18.5715 10 18.5715Z" fill="#EF392F"/>
<path d="M13.5715 5.71426C13.3887 5.71426 13.2059 5.784 13.0664 5.92361L5.92361 13.0664C5.64453 13.3455 5.64453 13.7975 5.92361 14.0764C6.20255 14.3553 6.65466 14.3555 6.93359 14.0764L14.0764 6.93359C14.3555 6.65451 14.3555 6.20255 14.0764 5.92361C13.9369 5.784 13.7543 5.71426 13.5715 5.71426Z" fill="#EF392F"/>
<path d="M6.42853 5.71426C6.24573 5.71426 6.06308 5.784 5.92361 5.92361C5.64453 6.20255 5.64453 6.65466 5.92361 6.93359L13.0664 14.0764C13.3455 14.3555 13.7975 14.3555 14.0764 14.0764C14.3553 13.7975 14.3555 13.3453 14.0764 13.0664L6.93359 5.92361C6.79413 5.784 6.61133 5.71426 6.42853 5.71426Z" fill="#EF392F"/>
</svg>
