<svg width="20" height="20" viewBox="0 0 20 20" fill="none" xmlns="http://www.w3.org/2000/svg">
<path d="M6.05527 8.21608C5.77889 7.91457 5.30151 7.88945 5 8.16583C4.69849 8.44221 4.67337 8.9196 4.94975 9.22111L8.74372 13.3417C8.89447 13.4925 9.07035 13.593 9.27136 13.593C9.27136 13.593 9.27136 13.593 9.29648 13.593C9.49749 13.593 9.69849 13.5176 9.82412 13.3668L19.4221 3.79397C19.7236 3.49246 19.7236 3.01508 19.4221 2.73869C19.1206 2.46231 18.6432 2.43719 18.3668 2.73869L9.32161 11.7588L6.05527 8.21608Z" fill="#30B651"/>
<path d="M19.2462 9.24623C18.8191 9.24623 18.4925 9.57286 18.4925 10C18.4925 14.6734 14.6734 18.4925 10 18.4925C5.32663 18.4925 1.50754 14.6734 1.50754 10C1.50754 5.32663 5.32663 1.50754 10 1.50754C10.4271 1.50754 10.7538 1.1809 10.7538 0.753769C10.7538 0.326633 10.4271 0 10 0C4.49749 0 0 4.49749 0 10C0 15.5025 4.49749 20 10 20C15.5025 20 20 15.5025 20 10C20 9.57286 19.6734 9.24623 19.2462 9.24623Z" fill="#30B651"/>
</svg>
