<svg width="18" height="22" viewBox="0 0 18 22" fill="none" xmlns="http://www.w3.org/2000/svg">
<path fill-rule="evenodd" clip-rule="evenodd" d="M0.366796 0.487965C2.73143 3.53241 5.32656 7.3571 5.74097 7.97552L5.78874 8.04702C6.01207 8.37568 6.19718 8.61903 6.3381 8.79967C6.6498 9.21111 6.74176 9.33279 6.55665 9.44569C6.41726 9.52993 6.25886 9.57326 6.09806 9.57113C5.9049 9.56294 5.7215 9.47981 5.58333 9.33781C5.48182 9.2362 4.78915 8.1687 3.84687 6.61575C3.13032 5.42782 2.52124 4.44186 2.50452 4.42555C2.47228 4.39043 2.47228 4.39043 3.77522 6.86663C4.59806 8.42335 5.15937 9.57364 5.15937 9.64639C5.15937 9.79567 5.12115 9.8747 4.94679 10.0804C4.62055 10.5167 4.44009 11.0536 4.43326 11.6083C4.29322 12.5892 3.86772 13.5006 3.21511 14.2175C2.95175 14.5224 2.72402 14.8593 2.53677 15.221C2.3942 15.5 2.32146 15.8125 2.32538 16.1292C2.30106 16.5079 2.34898 16.8879 2.46631 17.2468C2.58433 17.6287 2.75623 17.9898 2.97626 18.3181C3.15572 18.5675 3.289 18.85 3.36917 19.151C3.36917 19.2464 3.38589 19.2464 3.77283 19.151C4.5563 19.006 5.28394 18.6286 5.86995 18.0635C5.98439 17.9562 6.07337 17.8222 6.12977 17.6724C6.18617 17.5226 6.20844 17.3609 6.19479 17.2004C6.21348 17.0385 6.18736 16.8743 6.11955 16.7275C5.94105 16.4028 5.68179 16.1353 5.36956 15.9536C5.1443 15.8322 4.94746 15.6599 4.7932 15.4491C4.63895 15.2383 4.5311 14.9941 4.47744 14.7343C4.43806 14.2555 4.55379 13.7768 4.80587 13.3757C5.08892 12.824 5.24899 12.2119 5.27402 11.5857C5.30984 11.1065 5.35881 10.9184 5.48898 10.7666C5.56599 10.6822 5.65882 10.6156 5.76161 10.5709C5.86439 10.5262 5.97489 10.5044 6.08611 10.5069C6.52053 10.4788 6.93437 10.3026 7.26485 10.0052C7.37938 9.90346 7.47158 9.77691 7.53508 9.6342C7.59858 9.49149 7.63188 9.33602 7.63268 9.1785L7.64462 8.91257L7.50609 8.74197C6.99972 8.11853 0.0312081 0 0.00015728 0C-0.00581403 0 0.158994 0.219521 0.366796 0.487965ZM3.65579 16.6171C3.71058 16.5144 3.72698 16.3939 3.70181 16.2791C3.67665 16.1643 3.61171 16.0635 3.51965 15.9962C3.34051 15.8708 3.06224 15.9297 3.06224 16.094C3.06224 16.1442 3.08852 16.1806 3.14704 16.2132C3.24616 16.2672 3.25333 16.3286 3.1757 16.4528C3.09807 16.577 3.10285 16.6899 3.19361 16.7652C3.23197 16.7925 3.27565 16.8104 3.32146 16.8177C3.36728 16.8249 3.41406 16.8213 3.45837 16.8071C3.50269 16.7929 3.54342 16.7685 3.57758 16.7356C3.61174 16.7028 3.63847 16.6623 3.65579 16.6171ZM7.06182 5.00383C6.8385 4.96745 6.82297 4.96244 6.93404 4.94613C7.27187 4.92578 7.61071 4.9579 7.93961 5.04146C8.81385 5.30764 9.58632 5.85572 10.1478 6.60822L10.346 6.84154L10.6291 6.79387C11.7858 6.58616 12.9752 6.74466 14.0459 7.24922C14.3187 7.38087 14.578 7.54143 14.8197 7.7284C14.8565 7.83096 14.8806 7.93804 14.8914 8.04702C14.9775 8.46259 14.9357 8.89614 14.772 9.28512C14.7338 9.33505 14.7104 9.39566 14.7046 9.45943C14.6989 9.52319 14.7111 9.58733 14.7397 9.64389C14.766 9.70212 14.8074 9.75138 14.8592 9.78599C14.911 9.82061 14.971 9.83918 15.0323 9.83957C15.2843 9.83957 15.5554 9.4068 15.6808 8.80594L15.731 8.5676L15.8301 8.68677C16.3555 9.30094 16.7151 10.0515 16.8715 10.8607L16.8906 11.0262L16.7998 10.8757C16.6695 10.6468 16.4935 10.4504 16.2839 10.2999C15.7428 9.99333 15.1297 9.85496 14.5164 9.90104C13.8532 9.89277 13.1944 9.78722 12.559 9.58744C11.6824 9.28262 11.2405 8.87744 10.1956 7.42358C9.8841 6.96548 9.53825 6.53426 9.16134 6.13405C8.59825 5.52594 7.86063 5.12886 7.06182 5.00383ZM15.0264 6.44515C15.0301 6.10931 15.0945 5.77727 15.2162 5.46671C15.2409 5.40137 15.2717 5.33876 15.3082 5.2798C15.3013 5.33805 15.2868 5.39502 15.2652 5.44915C15.1805 5.77633 15.1674 6.11943 15.227 6.45267C15.2975 6.96322 15.3381 7.03723 15.8468 7.58791C16.0857 7.84632 16.3627 8.17247 16.4631 8.31296L16.6458 8.56384L16.4631 8.38195C16.1955 8.12178 15.911 7.8816 15.6115 7.66318C15.5351 7.62178 15.5244 7.62178 15.4766 7.67196C15.4288 7.72213 15.424 7.78611 15.4181 8.111C15.4307 8.51009 15.3512 8.90648 15.1864 9.26631C15.1016 9.44193 15.0885 9.40429 15.1649 9.2061C15.2359 8.97945 15.2575 8.73897 15.2282 8.50237C15.2282 7.51766 15.1171 7.28058 14.471 6.87164C14.3074 6.76878 14.0375 6.62076 13.8739 6.54299C13.773 6.49984 13.6752 6.44911 13.5813 6.39121C13.8882 6.46032 14.1896 6.55383 14.483 6.67094C14.8604 6.82523 14.9225 6.8453 14.9678 6.82649C15.0132 6.80767 15.012 6.72362 15.0275 6.44515H15.0264ZM6.82178 5.6925C6.79064 6.5607 7.02685 7.4163 7.49534 8.13232C7.79685 8.61014 8.26009 8.94963 8.79111 9.08191C9.05505 9.107 9.13387 9.01919 9.01444 8.83103C8.84779 8.57264 8.70616 8.29739 8.59167 8.00939C8.55823 7.90402 8.48538 7.59418 8.43045 7.31947C8.24653 6.38619 8.06023 6.02116 7.63029 5.74519C7.41524 5.62105 7.1844 5.52981 6.94479 5.47423L6.84089 5.45416L6.82178 5.6925ZM14.4758 13.0684C12.3536 12.1615 11.6096 11.375 11.6096 10.0478C11.6051 9.92926 11.6099 9.81053 11.6239 9.69281C11.688 9.73586 11.749 9.78365 11.8066 9.83581C12.4754 10.2956 13.2539 10.5482 14.053 10.5646C14.6069 10.6333 15.1538 10.7546 15.6868 10.9271C16.2684 11.0896 16.7932 11.4243 17.1987 11.8914C17.6042 12.3584 17.8733 12.9382 17.9738 13.5614C18.0243 14.0333 18.0017 14.5108 17.9069 14.9751C17.8356 15.2667 17.719 15.5439 17.5618 15.7955C17.5462 15.7955 17.5307 15.7365 17.5259 15.6475C17.5092 15.4011 17.4451 15.1608 17.3375 14.9411C17.23 14.7215 17.0812 14.5269 16.9002 14.3692C16.164 13.8011 15.3459 13.3607 14.477 13.0647L14.4758 13.0684ZM12.8838 12.9681C12.9273 13.1246 12.9616 13.2838 12.9866 13.4447C13.0804 13.9395 12.9874 14.4532 12.7274 14.8773C12.4673 15.3014 12.0605 15.6028 11.5929 15.7177C11.483 15.7528 11.053 15.8432 10.6374 15.9159C10.0859 15.9795 9.54678 16.1305 9.03833 16.3637C8.83227 16.4571 8.63906 16.579 8.46389 16.7263C8.51088 16.724 8.55706 16.7125 8.60003 16.6924C9.18702 16.4939 9.79874 16.3878 10.4153 16.3775C10.7354 16.36 11.0996 16.3324 11.225 16.3148C11.8275 16.2743 12.3965 16.0097 12.8301 15.5685C13.0329 15.3574 13.1862 15.0998 13.278 14.8158C13.345 14.6208 13.3707 14.4127 13.3532 14.2062C13.3713 13.9935 13.3444 13.7793 13.2744 13.579C13.2025 13.3375 13.0861 13.1133 12.9316 12.9191L12.8313 12.7937L12.8838 12.9681ZM13.9587 15.2774C13.6842 14.7079 13.6158 14.0531 13.7664 13.4347C13.7831 13.3732 13.8094 13.3218 13.8261 13.3218C13.8792 13.3424 13.9291 13.3711 13.9742 13.4071C14.1044 13.4999 14.3647 13.658 15.0586 14.0581C15.7024 14.3797 16.2789 14.8325 16.7544 15.3903C17.0525 15.7877 17.2468 16.2598 17.3181 16.7601C17.3619 17.2096 17.3438 17.6633 17.2644 18.1074C17.1654 18.5627 16.9766 18.9912 16.7102 19.3652C16.4438 19.7392 16.1058 20.0504 15.7178 20.2788C15.6451 20.3235 15.5697 20.3633 15.4921 20.3979C15.5106 20.3099 15.5416 20.2253 15.5841 20.147C15.7115 19.876 15.7854 19.5807 15.8014 19.2789C15.8174 18.9772 15.7752 18.6751 15.6772 18.3909C15.4562 17.8119 15.1674 17.2641 14.8174 16.7601C14.4948 16.2891 14.2081 15.792 13.9599 15.2737L13.9587 15.2774ZM8.649 17.3823C7.66429 17.5828 6.74709 18.0518 5.98938 18.7421L5.75053 18.9516L5.95594 18.9855C6.36566 19.0076 6.76608 19.1218 7.13013 19.3205C7.49419 19.5192 7.81341 19.7976 8.0662 20.137C8.29391 20.4658 8.62241 20.7024 8.99653 20.8069C9.23585 20.8838 9.49392 20.8637 9.71986 20.7506C9.94579 20.6375 10.1232 20.4396 10.2171 20.196C10.2952 19.9439 10.2872 19.671 10.1944 19.4245C10.1418 19.3211 10.0683 19.231 9.97919 19.1604C9.89005 19.0899 9.78733 19.0406 9.67819 19.016C9.56905 18.9914 9.45613 18.9921 9.34727 19.018C9.23841 19.0439 9.13624 19.0945 9.04788 19.1661C8.9883 19.2132 8.94249 19.277 8.91567 19.3501C8.88884 19.4232 8.88207 19.5027 8.89613 19.5797C8.91018 19.6566 8.9445 19.7279 8.99518 19.7854C9.04586 19.8429 9.11087 19.8843 9.18283 19.9049C9.25449 19.9212 9.25329 19.9175 9.16492 19.8748C9.105 19.8537 9.05325 19.8126 9.01749 19.7579C8.98173 19.7031 8.96389 19.6376 8.96667 19.5713C8.97425 19.4884 9.00183 19.4089 9.04681 19.3404C9.09178 19.2719 9.15267 19.2165 9.22369 19.1796C9.29472 19.1427 9.37354 19.1254 9.4527 19.1294C9.53186 19.1334 9.60874 19.1585 9.67606 19.2025C9.78491 19.24 9.87865 19.3148 9.94229 19.4148C10.0059 19.5149 10.0358 19.6344 10.0272 19.7544C10.0288 19.8528 10.0103 19.9503 9.97276 20.0405C9.93528 20.1306 9.87974 20.2112 9.80993 20.2768C9.74013 20.3424 9.65769 20.3914 9.56823 20.4206C9.47877 20.4497 9.38439 20.4582 9.29151 20.4456C9.05875 20.4063 8.84474 20.2877 8.68244 20.1082C8.6016 20.0074 8.54384 19.8885 8.51358 19.7607C8.48333 19.6328 8.48139 19.4993 8.50792 19.3706C8.53444 19.2418 8.58873 19.1211 8.6666 19.0178C8.74448 18.9145 8.84386 18.8314 8.95712 18.7747C9.15787 18.6822 9.37782 18.6451 9.59606 18.6671C9.81429 18.689 10.0236 18.7693 10.2039 18.9002C10.6434 19.205 10.8297 19.4847 11.2083 20.4054C11.3111 20.6616 11.4287 20.9108 11.5606 21.1518C11.6885 21.4008 11.8763 21.6102 12.1054 21.759C12.3345 21.9078 12.5967 21.9909 12.8659 21.9998C13.1346 22.0042 13.3999 21.936 13.6362 21.8016C13.8076 21.7198 13.9647 21.6083 14.1008 21.4717C14.0368 21.4835 13.9745 21.5042 13.9157 21.5332C13.6852 21.6512 13.431 21.709 13.1746 21.7018C12.9183 21.6946 12.6674 21.6225 12.4432 21.4918C12.1947 21.2585 12.0299 20.9428 11.9762 20.5974C11.9607 20.5271 11.9117 20.2211 11.8651 19.9074C11.8265 19.3596 11.659 18.8303 11.3779 18.367C11.044 17.9064 10.5676 17.5825 10.0308 17.4513C9.5772 17.3464 9.10999 17.3231 8.649 17.3823ZM7.3998 11.3235C7.44035 11.1716 7.51401 11.0316 7.61496 10.9147C7.7159 10.7978 7.84136 10.7071 7.98141 10.6499C8.20216 10.6027 8.4313 10.6259 8.63944 10.7164C8.7849 10.7899 8.90723 10.9056 8.99191 11.0499C9.07658 11.1942 9.12005 11.361 9.11715 11.5305C9.05863 11.8617 8.55107 12.1276 7.96827 12.1314C7.6709 12.1314 7.55983 12.0912 7.44638 11.9294C7.36935 11.7379 7.35302 11.5255 7.3998 11.3235ZM8.56182 10.8343C8.59482 10.8488 8.62429 10.871 8.64806 10.899C8.67183 10.9271 8.68929 10.9605 8.69915 10.9966C8.70901 11.0327 8.71102 11.0707 8.70502 11.1078C8.69903 11.1448 8.68519 11.18 8.66452 11.2106C8.56108 11.3234 8.41946 11.3888 8.27042 11.3925C8.06023 11.3925 7.82973 11.2345 7.82973 11.089C7.82973 10.8017 8.27042 10.6462 8.56062 10.8343H8.56182Z" fill="white"/>
</svg>
